<svg viewBox="0 0 24 24" width="24" height="24" fill="none" xmlns="http://www.w3.org/2000/svg">
  <path d="M19.6732 0H4.32675C1.93715 0 0 1.93715 0 4.32675V19.6732C0 22.0628 1.93715 24 4.32675 24H19.6732C22.0628 24 24 22.0628 24 19.6732V4.32675C24 1.93715 22.0628 0 19.6732 0Z" fill="#B30B00"/>
  <g transform="translate(4.44, 4.44)">
    <path d="M15.1381 9.42224C13.9826 8.22224 10.827 8.71112 10.0715 8.80001C8.96037 7.73335 8.20481 6.44446 7.93814 6.00001C8.33814 4.80001 8.60481 3.60001 8.64926 2.31112C8.64926 1.20001 8.20481 1.35899e-05 6.96037 1.35899e-05C6.51592 1.35899e-05 6.11592 0.26668 5.8937 0.622236C5.36037 1.55557 5.58259 3.42224 6.42703 5.33335C5.93814 6.71112 5.4937 8.04446 4.24926 10.4C2.96037 10.9333 0.249256 12.1778 0.0270333 13.5111C-0.0618556 13.9111 0.0714779 14.3111 0.382589 14.6222C0.6937 14.8889 1.0937 15.0222 1.4937 15.0222C3.13814 15.0222 4.73814 12.7556 5.84926 10.8445C6.78259 10.5333 8.24926 10.0889 9.71592 9.82224C11.4493 11.3333 12.9604 11.5556 13.7604 11.5556C14.827 11.5556 15.227 11.1111 15.3604 10.7111C15.5826 10.2667 15.4493 9.77779 15.1381 9.42224ZM14.027 10.1778C13.9826 10.4889 13.5826 10.8 12.8715 10.6222C12.027 10.4 11.2715 10 10.6048 9.46668C11.1826 9.37779 12.4715 9.24446 13.4048 9.42224C13.7604 9.51113 14.1159 9.73335 14.027 10.1778ZM6.60481 1.02224C6.6937 0.888903 6.82703 0.800014 6.96037 0.800014C7.36037 0.800014 7.44926 1.2889 7.44926 1.6889C7.40481 2.62224 7.22703 3.55557 6.91592 4.44446C6.24926 2.66668 6.38259 1.42224 6.60481 1.02224ZM6.51592 9.64446C6.87148 8.93335 7.36037 7.6889 7.53814 7.15557C7.93814 7.82224 8.60481 8.62224 8.96037 8.97779C8.96037 9.02224 7.58259 9.2889 6.51592 9.64446ZM3.8937 11.4222C2.87148 13.1111 1.80481 14.1778 1.22703 14.1778C1.13814 14.1778 1.04926 14.1333 0.960367 14.0889C0.827033 14 0.782589 13.8667 0.827033 13.6889C0.960367 13.0667 2.11592 12.2222 3.8937 11.4222Z" fill="white"/>
  </g>
</svg>
