<svg preserveAspectRatio="none" width="100%" height="100%" overflow="visible" style="display: block;" viewBox="0 0 20 20" fill="none" xmlns="http://www.w3.org/2000/svg">
<g id="Frame">
<path id="iconPrimary" d="M13.5827 8.63727C13.3247 8.36314 12.8356 8.22339 12.126 8.22339C11.7337 8.22877 11.3359 8.26102 10.9489 8.32552C10.7017 8.08364 10.4705 7.82026 10.2716 7.53538C10.1158 7.32575 9.97601 7.10537 9.84701 6.87424C10.0996 6.0841 10.2233 5.44984 10.2233 4.97146C10.2233 4.39095 9.99214 3.76744 9.34713 3.76744C9.12138 3.77282 8.91712 3.89644 8.80425 4.08457C8.53012 4.55758 8.63762 5.53585 9.07838 6.52486C8.9225 6.98174 8.75587 7.4225 8.55162 7.91701C8.37424 8.33627 8.18074 8.75015 7.96036 9.14791C7.29922 9.41129 5.89632 10.0563 5.76194 10.7712C5.71894 10.9808 5.79419 11.1958 5.95544 11.341C6.11132 11.4807 6.31557 11.5506 6.5252 11.5452C7.36909 11.5452 8.21298 10.3734 8.78274 9.36829C9.10525 9.26079 9.43313 9.15866 9.76101 9.07266C10.1211 8.97591 10.4651 8.90066 10.793 8.84153C11.6853 9.62092 12.4808 9.73917 12.8839 9.73917C13.4322 9.73917 13.6365 9.50267 13.7117 9.30379C13.7923 9.07804 13.7439 8.82002 13.5827 8.63727ZM12.9968 9.04578C12.9646 9.20166 12.8087 9.30378 12.5883 9.30378C12.5238 9.30378 12.4647 9.2984 12.4056 9.28228C12.0024 9.18553 11.6154 8.99203 11.2338 8.69102C11.5187 8.64802 11.8089 8.62652 12.1046 8.62652C12.2981 8.62114 12.4916 8.63727 12.6851 8.66952C12.8517 8.69639 13.0452 8.79315 12.9968 9.04578ZM9.14824 4.28881C9.18587 4.21893 9.25574 4.17056 9.33637 4.17056C9.54062 4.17056 9.58362 4.41781 9.58362 4.62207C9.58362 4.94995 9.48687 5.47671 9.31487 6.05722C8.97624 5.14345 9.02462 4.50919 9.14824 4.28881ZM9.63737 8.60502C9.45999 8.6534 9.28261 8.70177 9.10524 8.75552C9.20199 8.56202 9.28799 8.37389 9.36324 8.19113C9.45999 7.94925 9.55674 7.71275 9.64274 7.47624C9.71799 7.59449 9.79324 7.70737 9.87387 7.82025C10.0297 8.03525 10.191 8.23951 10.3684 8.43301C10.3684 8.42764 9.87925 8.54052 9.63737 8.60502ZM7.75072 9.68004C7.20784 10.5508 6.6757 11.0991 6.36394 11.0991C6.31556 11.0991 6.26181 11.0829 6.22419 11.0507C6.16506 11.0023 6.13819 10.9271 6.15431 10.8518C6.21881 10.5401 6.83158 10.0886 7.75072 9.68004Z" fill="var(--fill-0, black)"/>
<path id="iconPrimary_2" d="M7.67041 18.021H5.25C4.00928 18.021 3 17.0117 3 15.771V3.271C3 2.03028 4.00928 1.021 5.25 1.021H11.1289C11.7212 1.021 12.3008 1.26123 12.7197 1.68018L16.3408 5.30176C16.7661 5.72656 17 6.29151 17 6.89258V7.64844C17 8.0625 16.6641 8.39844 16.25 8.39844C15.8359 8.39844 15.5 8.0625 15.5 7.64844V6.89258C15.5 6.69238 15.4219 6.50391 15.2803 6.36231L11.6592 2.74073C11.5195 2.60108 11.3262 2.521 11.1289 2.521H5.25C4.83643 2.521 4.5 2.85743 4.5 3.271V15.771C4.5 16.1846 4.83643 16.521 5.25 16.521H7.67041C8.08447 16.521 8.42041 16.8569 8.42041 17.271C8.42041 17.6851 8.08447 18.021 7.67041 18.021Z" fill="var(--fill-0, black)"/>
<path id="iconPrimary_3" d="M18.5527 10.0378C17.5869 9.24625 16.0996 9.34927 15.1738 10.277L10.9912 14.4596C10.7432 14.7072 10.5586 15.0153 10.458 15.3503L9.5039 18.5099C9.42382 18.7746 9.49609 19.0617 9.6914 19.257C9.83398 19.3996 10.0254 19.4767 10.2217 19.4767C10.2939 19.4767 10.3672 19.4665 10.4385 19.4445L13.5967 18.4909C13.9326 18.3898 14.2412 18.2057 14.4873 17.9582C14.4873 17.9582 18.6123 13.8337 18.7402 13.7052C19.2334 13.2126 19.4971 12.53 19.4619 11.8332C19.4277 11.1364 19.0957 10.4821 18.5527 10.0378ZM11.3438 17.6042L11.8945 15.7829C11.9116 15.7255 11.9524 15.6811 11.9849 15.6313L13.3171 16.9634C13.2671 16.9962 13.2224 17.0371 13.1641 17.0548L11.3438 17.6042ZM17.6787 12.6457C17.5859 12.7389 15.4275 14.8971 14.2229 16.1015L12.8464 14.7255L16.2344 11.3376C16.4561 11.1159 16.7471 11.0006 17.0273 11.0006C17.2373 11.0006 17.4404 11.0656 17.6035 11.1989C17.8223 11.3776 17.9502 11.6295 17.9639 11.9074C17.9775 12.1857 17.877 12.4474 17.6787 12.6457Z" fill="var(--fill-0, black)"/>
</g>
</svg>
