<svg preserveAspectRatio="none" width="100%" height="100%" overflow="visible" style="display: block;" viewBox="0 0 16 16" fill="none" xmlns="http://www.w3.org/2000/svg">
<g id="Frame">
<path id="iconPrimary" d="M9 9.2C9 8.64844 8.55156 8.2 8 8.2C7.44844 8.2 7 8.64844 7 9.2C7 9.52207 7.16289 9.7959 7.4 9.9789V10.6C7.4 10.9312 7.66875 11.2 8 11.2C8.33125 11.2 8.6 10.9312 8.6 10.6V9.9789C8.83711 9.7959 9 9.52207 9 9.2Z" fill="var(--fill-0, black)" fill-opacity="0.64"/>
<path id="iconPrimary_2" d="M12 5.62031V5.2C12 2.99453 10.2055 1.2 8 1.2C5.79453 1.2 4 2.99453 4 5.2V5.62031C3.10274 5.72129 2.4 6.47637 2.4 7.4V12.6C2.4 13.5922 3.20782 14.4 4.2 14.4H11.8C12.7922 14.4 13.6 13.5922 13.6 12.6V7.4C13.6 6.47637 12.8973 5.72129 12 5.62031ZM8 2.4C9.54375 2.4 10.8 3.65625 10.8 5.2V5.6H5.2V5.2C5.2 3.65625 6.45625 2.4 8 2.4ZM12.4 12.6C12.4 12.9305 12.1305 13.2 11.8 13.2H4.2C3.86953 13.2 3.6 12.9305 3.6 12.6V7.4C3.6 7.06953 3.86953 6.8 4.2 6.8H11.8C12.1305 6.8 12.4 7.06953 12.4 7.4V12.6Z" fill="var(--fill-0, black)" fill-opacity="0.64"/>
</g>
</svg>
