<svg preserveAspectRatio="none" width="100%" height="100%" overflow="visible" style="display: block;" viewBox="0 0 16 16" fill="none" xmlns="http://www.w3.org/2000/svg">
<g id="Frame">
<path id="iconPrimary" d="M10.5922 2.97344L9.02656 1.40782C8.48359 0.864848 7.59922 0.866408 7.05625 1.40782L5.99843 2.46641C5.98378 2.48106 5.97812 2.50039 5.96523 2.51622L3.59062 3.81094C3.24453 4.00078 2.97656 4.3086 2.83594 4.67735L1.08203 9.28751C0.906248 9.74923 1.01875 10.2742 1.36797 10.6234C1.60938 10.8649 1.92969 10.9922 2.25703 10.9922C2.41485 10.9922 2.57422 10.9625 2.72656 10.9016L7.61797 8.93439C7.99453 8.78361 8.30156 8.49923 8.48203 8.13752L9.57383 5.95549C9.57989 5.94982 9.5879 5.94806 9.59375 5.94221L10.593 4.94299C11.1352 4.40002 11.1352 3.51562 10.5922 2.97344ZM7.40781 7.60157C7.35859 7.70157 7.27422 7.77891 7.1703 7.82032L3.39804 9.33722L5.18086 7.5544C5.51699 7.52334 5.7832 7.24952 5.7832 6.90508C5.7832 6.54004 5.4873 6.24405 5.12226 6.24405C4.77793 6.24405 4.5039 6.51036 4.47305 6.84658L2.57149 8.74814L3.95782 5.1039C3.99688 5.00156 4.0711 4.9164 4.16641 4.86406L6.3375 3.67969L8.3586 5.70156L7.40781 7.60157ZM9.74374 4.09532L9.09687 4.74219L7.25801 2.90333L7.9039 2.25704C7.98125 2.1797 8.1039 2.18204 8.17812 2.25626L9.74374 3.82188C9.81874 3.89688 9.81874 4.02032 9.74374 4.09532Z" fill="var(--fill-0, black)"/>
<path id="iconPrimary_2" d="M14.4648 5.3211C14.118 5.03047 13.6836 4.89141 13.2258 4.93282C12.7742 4.97344 12.3648 5.18672 12.0672 5.54375C12.0227 5.59961 9.57617 8.61328 8.57538 9.81602C8.38046 9.83018 8.18358 9.86026 7.98671 9.91485C6.73281 10.2625 6.28984 11.3094 5.89921 12.232C5.60858 12.9172 5.33514 13.5641 4.76405 13.8734C4.53514 13.9969 4.41249 14.2547 4.46014 14.5109C4.5078 14.7664 4.71483 14.9625 4.97342 14.9961C5.53905 15.0688 6.16795 15.1219 6.80311 15.1219C8.13046 15.1219 9.48436 14.8906 10.339 14.1281C10.9281 13.6024 11.2203 12.8969 11.2086 12.0297C11.2082 12.0083 11.2012 11.9883 11.2004 11.967C11.9683 11.043 13.6287 9.00166 14.3469 8.11954L14.6789 7.71094C14.9695 7.36329 15.1078 6.92344 15.0672 6.47188C15.0266 6.02032 14.8133 5.61094 14.4648 5.3211ZM9.53984 13.2328C8.98046 13.7305 7.86797 13.9672 6.40234 13.9141C6.65468 13.5242 6.83515 13.0992 7.0039 12.7C7.38124 11.8094 7.64608 11.2547 8.30702 11.0711C8.7875 10.9383 9.25312 11.0078 9.58984 11.2586C9.85156 11.4555 10.0047 11.7422 10.0086 12.0469C10.0156 12.557 9.8625 12.9453 9.53984 13.2328ZM13.7633 6.93594C13.7562 6.94454 13.6258 7.1047 13.4156 7.3625C12.8152 8.10059 11.5512 9.65371 10.7062 10.6816C10.5906 10.5416 10.4602 10.4114 10.3094 10.2984C10.1883 10.2078 10.0537 10.141 9.91894 10.0749C11.0715 8.67579 12.9873 6.31456 12.9953 6.30391C13.0805 6.20235 13.2 6.13985 13.3328 6.12813C13.4563 6.11406 13.593 6.15703 13.6961 6.24141C13.7977 6.32657 13.8602 6.4461 13.8719 6.57891C13.8836 6.71094 13.8437 6.83985 13.7633 6.93594Z" fill="var(--fill-0, black)"/>
</g>
</svg>
